<svg version="1.1" width="482" height="362" viewBox="-1 -1 482 362" xmlns="http://www.w3.org/2000/svg" xmlns:xlink="http://www.w3.org/1999/xlink">
  <!-- Exported by Scratch - http://scratch.mit.edu/ -->
  <path id="ID0.037586141377687454" fill="#FFF" scratch-type="backdrop-fill" d="M 0 0 L 480 0 L 480 360 L 0 360 L 0 0 Z "/>
  <path id="ID0.9660503482446074" fill="#2BE6E0" stroke="none" d="M 0 0 L 480 0 L 480 360 L 0 360 L 0 0 Z " transform="matrix(1, 0, 0, 1, 0.5, 0)"/>
  <g id="ID0.7590898871421814">
    <path id="ID0.8451481815427542" fill="#663B00" stroke="none" d="M 389.750 243.750 L 393.500 243.750 L 393.500 264.250 L 389.750 264.250 L 389.750 243.750 Z " transform="matrix(1, 0, 0, 0.5487805008888245, 1.5, 81.35)"/>
    <path id="ID0.2544074971228838" fill="#006622" stroke="none" stroke-linecap="round" d="M 389.750 219.800 C 390.671 218.878 391.173 221.798 391.750 222.800 C 393.838 225.745 396.437 228.454 397.750 231.650 C 398.080 232.454 396.378 232.879 396.500 233.800 C 396.481 234.733 397.782 235.273 398 236.400 C 398.205 237.475 397.375 238.423 397.500 239.650 C 397.698 241.528 400.447 243.835 399.250 245.050 C 397.756 246.545 394.825 245.078 392.500 245.250 C 389.758 245.447 386.769 247.078 384.250 245.700 C 382.795 244.897 385.505 242.176 385 240.700 C 384.634 239.652 382.196 240.046 382.250 238.800 C 382.325 237.042 384.972 236.320 385.250 234.450 C 385.499 233.384 383.157 232.710 383.500 231.650 C 384.850 227.480 386.633 222.957 389.750 219.800 Z " transform="matrix(1, 0, 0, 1.1586207151412964, 1.5, -67.9)"/>
  </g>
</svg>